<svg width="35" height="35" fill="none" xmlns="http://www.w3.org/2000/svg"><circle cx="17.5" cy="17.5" r="17.5" fill="#F24C5C"/><g clip-path="url(#clip0)"><path d="M18.008 13.265c-2.84 0-5.13 2.004-5.13 4.488 0 2.484 2.29 4.488 5.13 4.488s5.13-2.004 5.13-4.488c0-2.484-2.29-4.488-5.13-4.488zm0 7.406c-1.835 0-3.335-1.309-3.335-2.918 0-1.61 1.496-2.918 3.335-2.918 1.84 0 3.335 1.309 3.335 2.918 0 1.61-1.5 2.918-3.335 2.918zm6.536-7.59c0 .582-.536 1.047-1.197 1.047-.665 0-1.196-.469-1.196-1.047s.535-1.047 1.196-1.047c.66 0 1.197.469 1.197 1.047zm3.397 1.063c-.076-1.403-.442-2.645-1.616-3.668-1.17-1.024-2.59-1.344-4.192-1.414-1.652-.083-6.603-.083-8.255 0-1.598.066-3.018.386-4.192 1.41-1.174 1.023-1.535 2.265-1.616 3.668-.093 1.445-.093 5.777 0 7.222.076 1.403.442 2.645 1.616 3.668 1.175 1.024 2.59 1.344 4.192 1.414 1.652.082 6.603.082 8.255 0 1.602-.066 3.022-.386 4.192-1.414 1.17-1.023 1.535-2.265 1.616-3.668.094-1.445.094-5.773 0-7.218zm-2.134 8.77c-.348.765-1.022 1.355-1.902 1.663-1.317.457-4.442.352-5.897.352-1.456 0-4.585.101-5.897-.352-.876-.305-1.55-.894-1.902-1.664-.523-1.152-.402-3.887-.402-5.16 0-1.273-.116-4.012.402-5.16.348-.766 1.022-1.356 1.902-1.664 1.316-.457 4.441-.352 5.897-.352 1.455 0 4.585-.101 5.897.352.875.304 1.55.894 1.902 1.664.522 1.152.402 3.887.402 5.16 0 1.273.12 4.012-.402 5.16z" fill="#fff"/></g><defs><clipPath id="clip0"><path fill="#fff" transform="translate(8 8)" d="M0 0h20v20H0z"/></clipPath></defs></svg>